<svg xmlns="http://www.w3.org/2000/svg" xml:space="preserve" viewBox="0 0 1020.5 1020.5"><switch><g><linearGradient id="a" x1="162.2521" x2="858.2151" y1="137.0718" y2="883.4008" gradientUnits="userSpaceOnUse"><stop offset=".05" stop-color="#cb00eb"/><stop offset=".2183" stop-color="#b200e4"/><stop offset=".5166" stop-color="#8a00da"/><stop offset=".7542" stop-color="#7200d3"/><stop offset=".9" stop-color="#6900d1"/></linearGradient><path fill="url(#a)" fill-rule="evenodd" d="M510.2 0C228.4 0 0 228.4 0 510.2s228.4 510.2 510.2 510.2 510.2-228.4 510.2-510.2S792 0 510.2 0zm0 816.9c-168.7 0-305.5-137.3-305.5-306.7s136.8-306.7 305.5-306.7 305.5 137.3 305.5 306.7S679 816.9 510.2 816.9z" clip-rule="evenodd"/><linearGradient id="b" x1="162.252" x2="858.2151" y1="137.0718" y2="883.4008" gradientUnits="userSpaceOnUse"><stop offset="0" stop-color="#c967da"/><stop offset="1" stop-color="#8f23cd"/></linearGradient><path fill="url(#b)" d="M510.2 6c68.1 0 134.1 13.3 196.3 39.6 60 25.4 114 61.8 160.3 108.1 46.3 46.3 82.7 100.2 108 160.3 26.3 62.2 39.6 128.2 39.6 196.3s-13.3 134.1-39.6 196.3c-25.4 60-61.8 114-108.1 160.3-46.3 46.3-100.2 82.7-160.3 108.1-62.2 26.3-128.2 39.6-196.3 39.6-68.1 0-134.1-13.3-196.3-39.6-60-25.4-114-61.8-160.3-108.1C107.4 820.5 71 766.5 45.6 706.5 19.3 644.3 6 578.3 6 510.2S19.3 376.1 45.6 314c25.4-60 61.8-114 108.1-160.3C200 107.4 253.9 71 314 45.6 376.1 19.3 442.2 6 510.2 6m0-6C228.4 0 0 228.4 0 510.2s228.4 510.2 510.2 510.2c281.8 0 510.2-228.4 510.2-510.2S792 0 510.2 0z"/><linearGradient id="c" x1="293.9332" x2="726.5341" y1="278.2824" y2="742.1901" gradientUnits="userSpaceOnUse"><stop offset=".05" stop-color="#d033f3"/><stop offset=".9" stop-color="#8824db"/></linearGradient><path fill="url(#c)" d="M510.2 203.5c168.7 0 305.5 137.3 305.5 306.7 0 169.4-136.8 306.7-305.5 306.7S204.7 679.6 204.7 510.2c0-169.4 136.8-306.7 305.5-306.7m0-11c-42.7 0-84.2 8.4-123.2 25-37.7 16-71.5 38.9-100.6 68.1-29.1 29.2-51.9 63.2-67.8 101-16.5 39.2-24.9 80.8-24.9 123.7s8.4 84.5 24.9 123.7c15.9 37.8 38.8 71.8 67.8 101 29.1 29.1 62.9 52 100.6 68 39 16.6 80.5 25 123.2 25s84.2-8.4 123.2-25c37.7-16 71.5-38.9 100.6-68.1 29.1-29.2 51.9-63.2 67.8-101 16.5-39.2 24.9-80.8 24.9-123.7s-8.4-84.5-24.9-123.7c-15.9-37.8-38.8-71.8-67.8-101-29.1-29.2-62.9-52.1-100.6-68.1-39-16.5-80.4-24.9-123.2-24.9z"/></g></switch></svg>