<svg xmlns="http://www.w3.org/2000/svg" width="800" height="800" viewBox="0 0 32 32"><path d="M16 5c-3.252 0-7.6878906.0508594-8.5878906.1308594-1.01.606-3.0092969 2.9000937-3.0292969 3.4960937v1C4.3828125 10.889953 5.5657188 12 6.6367188 12c1.2829999 0 2.3535156-1.070031 2.3535156-2.3320312C8.9902344 10.929969 10.0305 12 11.3125 12c1.293 0 2.292969-1.069031 2.292969-2.3320312C13.605469 10.929969 14.695281 12 15.988281 12h.021485c1.293 0 2.382812-1.069031 2.382812-2.3320312C18.392578 10.929969 19.402547 12 20.685547 12s2.324219-1.069031 2.324219-2.3320312C23.009766 10.929969 24.080281 12 25.363281 12c1.071 0 2.251953-1.110047 2.251953-2.3730469v-1c-.02-.596-2.019296-2.8900937-3.029296-3.4960937C21.443938 5.0198594 19.252 5 16 5zm-2.449219 6.742188c-1.053 1.81-3.6984685 1.831718-4.7304685.011718-.63 1.092-2.0560156 1.513641-2.6660156 1.306641-.178 1.899-.3008125 11.648203.9921875 13.283203 3.7969996.885 14.0180316.866 17.7070316 0 1.495-1.524 1.160187-11.522203.992187-13.283203-.61.207-2.03625-.214641-2.65625-1.306641-1.043 1.82-3.688234 1.798282-4.740234-.011718-.325.589999-1.082219 1.367187-2.449219 1.367187-1.003.039-1.948219-.502188-2.449219-1.367187zM11.419922 14c.8 0 1.530156.000469 2.410156.980469 1.45-.15 2.889844-.15 4.339844 0 .89-.97 1.610156-.970703 2.410156-.970703 2.58 0 3.200859 3.809843 4.13086 7.089843.84 3.05-.281876 3.13086-1.671876 3.13086-2.07-.08-3.218749-1.579844-3.21875-3.089844-1.929999.32-5.010624.44-7.640624 0 0 1.51-1.14875 3.009844-3.2187505 3.089844-1.39 0-2.511875-.08086-1.671875-3.13086.93-3.3 1.5508594-7.089843 4.1308595-7.089843V14zM16 16.876953s-1.694 1.562422-2 2.107422l1.107422-.041016v.966797c0 .058.818578.007813.892578.007813.447.017.892578.033187.892578-.007813v-.966797L18 18.984375c-.306-.546-2-2.107422-2-2.107422z"/></svg>