<svg xmlns="http://www.w3.org/2000/svg" width="800" height="800" viewBox="-12.01 0 74.069 74.069"><path fill="#00bcf2" d="M4.19118.00045c-2.32897 0-4.19141 1.8624-4.19141 4.1914v65.6238c0 2.32889 1.86244 4.25389 4.19141 4.25389h41.66391c2.32898 0 4.19142-1.925 4.19142-4.25389V4.19185c0-2.329-1.86244-4.1914-4.19142-4.1914H4.19118zm11.82355 4.0037h18.01682v2.0019H16.01473v-2.0019zm-12.01122 6.0056h42.03926v52.0486H4.00351v-52.0486zm20.89451 14.5136-10.88516 5.5051 10.88516 6.5061 11.1354-6.5061-11.1354-5.5051zm-10.88516 7.507v12.0112l10.00934 6.0056v-12.0112l-10.00934-6.0056zm22.02056.062-10.00935 6.0057v12.0112l10.00935-6.0056v-12.0113zM18.0166 66.06165h14.01308v4.0037H18.0166v-4.0037z"/></svg>