<svg xmlns="http://www.w3.org/2000/svg" width="210mm" height="210mm" viewBox="0 0 210 210"><path fill="#ff0001" d="m144.14698 103.9667-8.56331.0698h-14.68799v178.39892h23.23993l7.29878-.00051c24.75886 0 44.99539-20.74275 45.09492-45.48198h.002v-.14315c.00001-.0133.00051-.0265.00051-.0398v-7.29878h-.00051v-72.54079h.0119v-7.29878c0-24.81998-20.27751-45.66491-45.09751-45.66491zm-84.366945.00052c-24.758867 0-44.995385 20.74274-45.094922 45.48198h-.0021v.14314c-.000012.0133-.000517.0265-.000517.0398v7.29878h.000517v72.54079h-.01189v7.29878c.000001 24.81999 20.277512 45.66491 45.097506 45.66491h42.203101V104.03647H67.078815v-.0692zm.567923 14.73967v.0181h6.730338l.000519 23.85126v-23.85126h20.204966v149.02243H67.067445v-38.2757l-.000518 38.2757h-6.212023c-23.387975-2.13601-30.537051-15.79147-31.483865-34.47698v-3.79874h37.696406l-37.696406-.001v-72.53821l13.64671-.00052a16.819941 16.819941 0 0 0-.03927.78394 16.819941 16.819941 0 0 0 16.820161 16.81964 16.819941 16.819941 0 0 0 16.819644-16.81964 16.819941 16.819941 0 0 0-9.539467-15.13913 16.819941 16.819941 0 0 0 0-.00052 16.819941 16.819941 0 0 0-7.280177-1.68052 16.819941 16.819941 0 0 0-16.780889 16.0352h-13.64671v-3.52795c.885295-18.68359 7.892915-32.3944 30.976919-34.69607zm96.064932 65.44148c10.05206 0 18.07229 8.02022 18.07229 18.07228 0 10.05206-8.02023 18.07228-18.07229 18.07228-10.05206 0-18.07228-8.02022-18.07228-18.07228 0-10.05206 8.02022-18.07228 18.07228-18.07228z" color="#000" font-family="sans-serif" font-weight="400" overflow="visible" style="line-height:normal;font-variant-ligatures:normal;font-variant-position:normal;font-variant-caps:normal;font-variant-numeric:normal;font-variant-alternates:normal;font-feature-settings:normal;text-indent:0;text-align:start;text-decoration-line:none;text-decoration-style:solid;text-decoration-color:#000;text-transform:none;text-orientation:mixed;white-space:normal;shape-padding:0;isolation:auto;mix-blend-mode:normal;solid-color:#000;solid-opacity:1" transform="translate(0 -87)"/></svg>