<svg xmlns="http://www.w3.org/2000/svg" xml:space="preserve" id="Capa_1" x="0" y="0" version="1.1" viewBox="0 0 716.3 765"><style>.st0{fill:#0a2434}</style><path d="M276.2.1v432.6l97.9 31.1V100.9c0-17 7.6-28.3 19.8-24.4 16 4.4 19.1 20.1 19.1 37.1v144.9c61 29.5 109 0 109-77.8 0-79.8-28.1-115.2-111-143.6C378.4 26 317.8 7.8 276.2.1" class="st0"/><path d="M392.6 400.5 550 344.4c17.9-6.4 20.6-15.5 6.1-20.2-14.5-4.8-40.8-3.4-58.6 3l-104.9 37v-58.8l6.1-2.1s30.3-10.7 72.9-15.4c42.6-4.7 94.8.7 135.8 16.2 46.1 14.6 51.3 36.1 39.6 50.9-11.7 14.8-40.5 25.4-40.5 25.4l-213.9 76.9v-56.8zm-296-6c-47.4-13.4-55.3-41.1-33.7-57.2 20-14.8 54-25.9 54-25.9l140.3-49.9v56.9l-100.9 36.1c-17.9 6.4-20.6 15.5-6.1 20.2 14.5 4.7 40.8 3.4 58.7-3l48.4-17.6V405c-3.1.6-6.5 1.1-9.7 1.6-48.5 8-100.1 4.7-151-12.1m527.6 88.8c7.7 0 14.9-3 20.4-8.5 5.4-5.4 8.4-12.7 8.4-20.4 0-7.7-3-15-8.4-20.4-5.4-5.5-12.7-8.5-20.4-8.5-15.9 0-28.8 12.9-28.8 28.8 0 7.7 3 14.9 8.5 20.4 5.3 5.6 12.5 8.6 20.3 8.6m-24-28.9c0-6.4 2.5-12.5 7.1-17 4.5-4.5 10.5-7 16.9-7 6.4 0 12.4 2.5 16.9 7 4.6 4.5 7.1 10.6 7.1 17 0 13.2-10.8 24-24 24-6.4 0-12.4-2.5-16.9-7.1-4.7-4.4-7.1-10.5-7.1-16.9" class="st0"/><path d="m638.3 467.8-.9-1.4-.2-2.5-.2-4.1c-.1-1.9-.4-3.3-1.1-4.2L634 454l2.4-2.4c.8-1.3 1.2-2.9 1.2-4.9 0-3.8-1.6-6.5-4.7-7.9-1.6-.7-3.6-1-6.1-1h-15v32.1h5.6v-13.2h8.8l3.4.5 1.8 3.4.2 5.1.3 2.5.4 1.2.2.4h6.2V468l-.4-.2zm-6.3-20.6-1.4 3.6-4.3 1h-8.9v-9h9.4l3.1.5c1.4.7 2.1 1.9 2.1 3.9m83.2 254.1h-31.8 1.1c-.6 0-1.1-.5-1.1-1.1v-103c0-15.8-11-21-26.3-11.5L472.6 699c-7.3 4.5-9.7 9.5-7.9 13.2 1.5 3.2 5.5 5.4 13.5 5.4h171.3c.5 0 .9.4 1 .8v14.5c0 .6.5 1.1 1.1 1.1h30.8c.6 0 1.1-.5 1.1-1.1v-14.2c0-.6.5-1.1 1.1-1.1h30.7c.6 0 1.1-.5 1.1-1.1v-14.2c-.1-.5-.6-1-1.2-1zm-64.7-1.2c0 .6-.5 1.1-1.1 1.1H505.8c-1.2 0-1.8-.3-1.9-.7-.2-.7.2-1.2 1.1-1.8l142.9-88c1-.6 2.7-.5 2.7 1.4v88zm-468.4-36.8h-129c-11.9 0-20.2 10.1-20.2 24.5V733c0 .6-.5 1.1-1.1 1.1H1.1c-.6 0-1.1-.5-1.1-1.1v-45.2c0-23.3 15.7-40.9 36.6-40.9h134.6c14.4 0 21.3-10.4 21.3-24.8s-6.9-24.8-21.3-24.8H1.1c-.6 0-1.1-.5-1.1-1.1V582c0-.6.5-1.1 1.1-1.1h181c29 0 43.2 17.9 43.2 41.2 0 23.3-14.2 41.2-43.2 41.2zm295.6-66h-89.2c-14.4 0-21.2 10.4-21.2 24.8v70.8c0 23.3-14.2 41.1-43.2 41.1h-105c-.6 0-1.1-.5-1.1-1.1v-14.2c0-.6.5-1.1 1.1-1.1h94.1c14.4 0 21.3-10.4 21.3-24.8V622c0-23.3 14.2-41.2 43.2-41.2h100.1c.6 0 1.1.5 1.1 1.1v14.2c-.2.7-.6 1.2-1.2 1.2z" class="st0"/></svg>