<svg xmlns="http://www.w3.org/2000/svg" xml:space="preserve" viewBox="0 0 100 43.91"><path d="m75.617 23.232 4.352-5.981c-1.428-.334-2.785-.919-4.008-1.728-1.209-.919-1.885-2.379-1.803-3.896-.062-1.531.677-2.985 1.95-3.837 1.692-1.008 3.65-1.481 5.616-1.357 7.65 0 9.642 4.022 10.995 5.724l4.103-5.639c-.694-1.13-1.571-2.136-2.596-2.976C91.369 1.18 87.162 0 81.605 0c-4.89 0-8.712 1.072-11.467 3.217-2.706 2.035-4.25 5.262-4.137 8.647 0 5.737 3.205 9.359 9.616 11.368zm21.092-.303c-1.917-1.707-4.887-3.044-8.91-4.011l-4.401 6.047c2.302.461 4.494 1.363 6.453 2.656 1.233.851 1.937 2.28 1.859 3.777.092 1.78-.733 3.484-2.187 4.515-1.897 1.16-4.106 1.707-6.325 1.564-6.361 0-9.36-2.108-12.423-7.597l-4.39 6.033c.783 1.612 1.912 3.033 3.306 4.16 3.133 2.558 7.556 3.837 13.27 3.837 5.359 0 9.537-1.131 12.532-3.394 2.984-2.237 4.666-5.807 4.493-9.532.159-3.039-1.042-5.991-3.278-8.055h.001zM58.886 42.97h-1.834V.945h1.83l.004 42.025zM5.026.748c.604-.028 1.183.242 1.55.723.759 1.294.731 2.904-.072 4.17-.444.519-1.102.803-1.783.771h-.01V5.125h.009c.393.031.778-.129 1.033-.43.232-.37.34-.804.31-1.24.023-.355-.065-.709-.251-1.013-.166-.232-.438-.363-.723-.348-.238-.012-.466.1-.602.295-.189.337-.315.705-.371 1.087l-.115.571c-.081.605-.332 1.174-.723 1.642-.349.365-.838.565-1.343.548-.55.017-1.074-.232-1.406-.67C.153 5.024-.03 4.372.008 3.713c-.05-.726.153-1.447.574-2.04.402-.47.992-.738 1.611-.732h.01v1.268h-.005c-.326-.003-.636.137-.852.381-.209.328-.306.715-.274 1.103-.019.315.057.629.218.9.137.202.369.32.613.31.241.012.473-.095.62-.286.192-.316.318-.667.37-1.033l.115-.591c.087-.626.332-1.22.713-1.724.336-.358.814-.549 1.305-.523v.002zm-1.31 37.086c-.381.505-.626 1.098-.713 1.724l-.115.591c-.052.366-.178.717-.37 1.033-.147.191-.379.298-.62.286-.244.01-.476-.108-.613-.31-.161-.271-.237-.585-.218-.9-.031-.388.065-.775.275-1.103.215-.244.526-.384.851-.382h.009v-1.275h-.01c-.619-.006-1.208.262-1.611.732-.422.593-.625 1.314-.574 2.04-.038.659.146 1.312.522 1.854.332.438.856.688 1.406.67.505.016.994-.183 1.343-.549.391-.468.642-1.037.723-1.642l.115-.571c.057-.382.182-.75.371-1.087.136-.196.364-.307.602-.295.286-.012.558.119.724.35.186.304.274.658.251 1.013.03.436-.078.87-.31 1.24-.255.301-.64.461-1.033.43h-.009v1.28h.01c.681.032 1.339-.252 1.782-.771.803-1.267.831-2.876.072-4.17-.366-.481-.946-.752-1.55-.723-.494-.025-.974.17-1.311.532v.003zm3.257-16.576v1.348c-.252.129-.533.192-.816.183l-.744.029c-.31-.016-.615.083-.856.278-.18.226-.266.511-.241.799v1.666h2.662v1.306H.16V23.78c0-.148.007-.295.022-.442v.14c.014-.461.149-.91.389-1.304l-.056.069c.048-.081.102-.159.162-.232.345-.42.867-.654 1.41-.632.733-.05 1.404.411 1.622 1.113.08-.29.259-.543.505-.716.288-.165.614-.249.945-.245l1.011-.057c.277.006.549-.065.787-.207l.016-.009zm-4.742 1.467c-.28-.016-.552.098-.737.31-.184.253-.275.562-.255.875v1.653H3.28v-1.711c.019-.303-.078-.602-.27-.837-.205-.207-.49-.314-.781-.293l.002.003zM.165 18.523h6.818v-1.306H.165v1.306zm1.174-9.49H.165v5.022h6.818V9.033H5.808v3.719H4.067V9.389H2.94v3.363H1.334l.005-3.719zm0 20.631H.165v5.022h6.818v-5.022H5.808v3.719H4.067V30.02H2.94v3.363H1.334l.005-3.719zm8.598 13.305h9.043l6.87-9.441-4.522-6.215L9.937 42.969zM49.558.947h-9.043l-5.621 7.724 4.522 6.214L49.558.947zm-29.329 0h-9.044l30.578 42.016h9.043L20.229.947z"/></svg>