<?xml version="1.0" standalone="no"?>
<!DOCTYPE svg PUBLIC "-//W3C//DTD SVG 20010904//EN"
 "http://www.w3.org/TR/2001/REC-SVG-20010904/DTD/svg10.dtd">
<svg version="1.0" xmlns="http://www.w3.org/2000/svg"
 width="1024.000000pt" height="1024.000000pt" viewBox="0 0 1024.000000 1024.000000"
 preserveAspectRatio="xMidYMid meet">
<metadata>
Created by potrace 1.14, written by Peter Selinger 2001-2017
</metadata>
<g transform="translate(0.000000,1024.000000) scale(0.100000,-0.100000)"
fill="#000000" stroke="none">
<path d="M2958 8556 l-3 -84 72 -5 c114 -9 113 -9 113 89 l0 84 -89 0 -90 0
-3 -84z"/>
<path d="M3518 8398 l-3 -243 -87 -3 -88 -3 0 -79 0 -80 -57 0 c-32 0 -88 3
-125 7 l-68 6 0 73 0 74 -67 0 -68 0 3 -71 c3 -52 0 -74 -10 -81 -7 -4 -44 -8
-83 -6 l-70 1 -3 -81 -3 -82 -83 0 c-97 0 -96 -1 -96 96 l0 64 -87 2 c-49 1
-116 2 -150 1 -42 -1 -63 3 -63 10 0 7 -5 5 -10 -3 -5 -8 -10 -50 -10 -92 l0
-78 159 0 158 0 6 -107 c5 -94 3 -112 -14 -139 -39 -64 -49 -68 -185 -72
l-124 -4 0 -84 0 -84 -81 0 -80 0 3 -82 3 -83 -78 -3 -77 -3 0 -94 0 -95 86 0
85 0 -3 95 -3 95 26 0 c14 0 47 -3 73 -6 l46 -7 0 -51 c0 -28 -3 -68 -6 -88
l-6 -37 -67 -3 -66 -3 -3 -87 -3 -88 -74 0 -75 0 0 -69 c0 -102 1 -101 -91
-101 l-79 0 0 -90 0 -90 80 0 80 0 2 -252 3 -253 78 -3 77 -3 2 218 c1 120 1
235 0 256 l-2 37 75 0 75 0 0 -415 0 -415 -75 0 -75 0 0 -80 0 -80 -160 0
-160 0 0 -161 0 -160 78 3 77 3 3 -82 3 -83 155 0 155 0 -3 -72 -3 -73 -150
-5 -150 -5 4 -163 4 -162 -87 0 -86 0 0 -80 0 -80 -80 0 -80 0 0 -80 0 -80
239 0 238 0 7 77 c3 42 6 150 6 240 l0 163 70 0 70 0 0 -775 0 -775 85 0 85 0
0 -165 0 -166 -82 3 -83 3 -3 78 -3 77 -74 0 -75 0 0 90 0 90 -80 0 -80 0 2
-197 3 -198 78 -3 77 -3 0 -59 0 -60 75 0 76 0 -1 -177 c-1 -98 -1 -224 -1
-280 l1 -103 1598 2 c878 2 1348 4 1045 5 l-553 3 0 79 c0 70 2 80 18 78 14
-1 16 -8 12 -46 l-4 -46 -7 45 c-5 40 -6 37 -7 -27 -2 -62 0 -72 14 -66 11 4
12 8 4 13 -9 6 -6 14 9 29 21 21 30 68 11 56 -12 -7 -13 15 -2 30 4 6 70 10
160 11 l152 0 0 -23 c0 -20 5 -23 40 -23 22 0 40 5 40 10 0 6 7 10 16 10 8 0
12 -4 9 -10 -3 -5 -1 -10 4 -10 6 0 11 5 11 10 0 6 9 10 20 10 39 0 20 19 -22
22 -24 2 30 2 120 -1 93 -2 162 0 162 5 0 9 525 7 802 -3 108 -4 152 -2 162 6
16 14 152 5 162 -10 3 -5 21 -9 40 -9 24 0 34 -5 34 -15 0 -10 11 -15 38 -16
150 -4 235 -14 240 -28 3 -8 -27 -12 -100 -13 -81 -1 -91 -3 -48 -7 36 -4 -6
-8 -120 -11 l-175 -6 235 -2 c133 -1 229 -6 222 -11 -10 -6 -8 -10 10 -17 14
-5 -172 -11 -467 -14 -447 -5 -417 -5 348 -8 l837 -2 0 -92 0 -93 43 1 c23 0
55 6 70 12 27 12 28 13 25 87 l-4 75 88 0 88 0 0 96 0 95 335 -5 c184 -3 340
-8 346 -11 6 -4 9 -38 7 -86 -2 -59 0 -80 10 -84 8 -3 79 -5 158 -5 l144 0 0
96 0 97 -75 -7 -75 -7 0 196 0 195 80 0 80 0 0 90 0 90 69 0 70 0 3 38 c2 20
2 97 0 169 l-3 133 -230 0 -229 0 -1 53 c-1 49 -4 74 -12 122 -3 13 -15 22
-33 26 -16 4 -24 7 -17 8 6 0 18 20 25 44 l15 42 84 5 c76 5 84 7 84 25 0 19
-8 20 -153 23 l-152 3 0 354 0 355 80 0 80 0 0 -64 c0 -96 0 -96 86 -96 l74 0
0 80 0 80 80 0 80 0 0 80 0 80 -155 0 -155 0 0 85 0 85 156 0 156 0 -5 83 c-3
45 -6 83 -6 85 -1 1 -35 2 -76 2 l-75 0 0 150 0 150 -75 0 -75 0 0 80 0 80
155 0 155 0 0 80 0 80 70 0 70 0 0 160 0 160 -145 0 -145 0 0 -74 c0 -85 1
-86 86 -86 l54 0 1 -47 c0 -27 2 -60 4 -75 3 -25 0 -27 -39 -33 -23 -4 -57 -5
-76 -3 l-35 3 -3 77 -3 76 -70 4 c-38 2 -74 2 -79 0 -6 -2 -10 -68 -10 -163
l0 -159 -80 0 -80 0 0 833 0 832 80 2 80 3 0 -90 0 -90 80 0 80 0 0 -90 0 -90
-26 0 -26 0 4 -77 3 -78 -58 -3 -58 -3 2 -330 1 -329 79 0 79 0 0 330 0 330
75 0 c41 0 75 1 75 3 1 1 4 118 7 260 l6 257 -82 0 -81 0 0 345 0 345 149 0
148 0 7 77 c3 42 6 116 6 165 l0 88 -75 0 -75 0 0 -49 c0 -27 -3 -63 -6 -80
l-6 -31 -74 0 -74 0 0 -80 0 -80 -165 0 c-150 0 -165 2 -166 18 -1 9 -1 43 -1
75 l0 57 -47 1 c-25 1 -61 2 -78 3 l-33 0 0 243 0 243 -80 0 -80 0 0 -80 0
-80 -95 0 -95 0 0 80 0 80 -95 0 c-52 0 -94 -3 -94 -7 1 -5 1 -77 0 -160 l-1
-153 -224 0 c-256 0 -236 -9 -232 101 3 66 10 61 -94 63 l-65 1 -3 163 -2 162
-75 0 -75 0 0 -245 0 -244 -137 -3 -138 -3 -3 -83 -3 -82 -1018 0 c-812 0
-1021 3 -1035 13 -15 11 -17 25 -14 85 l3 72 -162 0 -163 0 0 80 0 80 165 0
165 0 0 80 0 80 -166 0 -165 0 2 -70 c1 -39 -1 -73 -4 -76 -3 -3 -42 -8 -86
-11 l-81 -6 0 -79 0 -78 -182 2 -183 3 0 80 0 80 83 3 82 3 0 319 0 320 -80 0
-80 0 -2 -242z m-177 -640 c1 -40 1 -76 0 -80 0 -5 23 -8 53 -8 29 0 68 -3 85
-6 l31 -6 0 -69 0 -69 265 0 265 0 0 -169 c0 -193 6 -181 -96 -181 l-64 0 0
-72 0 -73 80 3 80 4 0 -95 0 -94 31 -7 c39 -8 93 -8 112 0 12 4 14 31 9 174
l-5 169 94 3 93 3 1 70 c0 39 -1 112 -3 163 l-2 92 -79 0 -78 0 -1 -71 c0 -39
-2 -72 -4 -74 -2 -2 -35 -6 -73 -7 l-70 -3 -3 158 -3 157 156 0 155 0 2 -57
c0 -32 1 -65 2 -73 1 -13 182 -15 1559 -18 l1557 -2 0 75 0 75 95 0 95 0 0
-42 c0 -24 -3 -93 -6 -154 l-7 -111 -66 4 c-36 2 -74 6 -83 8 -16 3 -18 -7
-18 -96 l0 -99 -56 0 c-35 0 -61 -5 -70 -14 -19 -20 -19 -115 1 -143 14 -20
24 -22 86 -20 77 2 89 -6 88 -58 0 -33 4 -62 12 -69 2 -3 39 -6 82 -7 57 -1
77 -5 77 -15 0 -8 5 -14 10 -14 6 0 9 -39 8 -102 l-3 -103 35 -3 c19 -1 50 -5
68 -8 l32 -5 -2 -489 c-1 -269 -4 -493 -7 -497 -3 -5 -24 -5 -46 -2 l-40 6 42
2 42 1 -1 55 -2 55 -72 0 c-102 0 -104 1 -104 71 0 37 -4 59 -11 59 -8 0 -10
-17 -7 -49 5 -52 -3 -76 -24 -76 -9 0 -14 -19 -16 -57 -3 -54 -1 -58 19 -58
12 0 19 -3 15 -7 -4 -5 -13 -8 -19 -8 -8 0 -14 -38 -17 -120 -4 -66 -7 130 -8
436 -1 378 1 558 9 566 12 12 -129 18 -148 5 -10 -6 -13 -125 -15 -518 l-3
-509 -87 -3 -88 -3 0 -81 0 -81 -83 7 c-117 9 -117 10 -117 -85 l0 -78 103 -3
102 -3 3 -158 3 -158 84 3 85 3 0 -526 0 -526 -39 -7 c-21 -3 -59 -3 -83 0
l-45 6 -5 -68 c-3 -38 -7 -112 -8 -164 -1 -52 -4 -97 -7 -100 -2 -3 -358 -6
-789 -6 l-784 -1 -2 131 c-1 72 -2 148 -3 169 l0 37 -77 0 -78 0 0 260 0 260
80 0 80 0 0 90 0 90 95 0 95 0 0 -155 0 -155 75 0 74 0 3 -70 3 -71 393 1
c215 0 403 0 417 0 l25 0 0 403 0 402 -310 -3 -310 -3 0 266 0 265 230 0 230
0 0 135 0 135 80 0 80 0 0 326 0 327 -31 -7 c-17 -3 -205 -6 -418 -6 l-386 0
-3 -162 c-2 -90 -4 -163 -5 -164 -1 -1 -113 -4 -249 -7 l-248 -6 0 285 0 284
80 0 80 0 0 100 0 99 78 3 77 3 3 87 3 86 -43 -3 c-24 -2 -62 -4 -85 -4 l-42
-1 -3 -77 -3 -78 -70 -3 c-38 -2 -75 -8 -81 -13 -9 -7 -15 -5 -22 8 -6 10 -14
15 -17 11 -4 -4 2 -17 14 -29 17 -18 21 -35 20 -79 -1 -31 2 -66 5 -78 8 -24
11 -23 -131 -26 -34 -1 -58 -16 -27 -17 18 0 18 -1 -1 -9 -17 -7 -17 -9 -2 -9
15 -1 17 -13 17 -101 0 -57 -4 -100 -10 -100 -5 0 -12 -17 -16 -37 l-7 -37
-14 44 c-8 27 -12 65 -9 96 3 28 3 54 -1 58 -11 11 -33 -54 -32 -93 l2 -36 7
40 c6 32 7 26 7 -35 0 -41 -2 -65 -4 -52 -2 12 -9 22 -14 22 -5 0 -10 24 -11
53 -1 48 -2 49 -5 11 -3 -25 -12 -49 -24 -59 -15 -15 -19 -32 -19 -89 0 -39
-5 -78 -10 -86 -8 -13 -10 -12 -10 3 0 10 -5 15 -11 12 -6 -4 -8 -27 -5 -58 4
-29 2 -77 -3 -107 -5 -36 -9 117 -10 442 0 273 -4 504 -7 512 -5 12 -10 14
-19 6 -9 -8 -30 -8 -64 -2 -28 5 -48 5 -45 1 3 -5 0 -9 -5 -9 -8 0 -11 -513
-12 -1707 0 -940 -4 -1717 -9 -1728 -8 -18 -9 -18 -9 -2 -1 17 -13 18 -241 11
l-240 -7 -1 74 c-1 41 -3 99 -5 129 -1 30 -3 73 -3 96 l-1 40 -80 -3 -80 -3
-2 132 c0 73 0 143 1 156 2 21 -1 22 -89 22 l-90 0 0 135 0 135 -85 0 -85 0 0
80 0 80 -85 0 -85 0 0 160 0 160 -85 0 -85 0 -2 203 c-2 111 -2 221 -2 245 l0
43 -75 -3 -76 -3 -3 -929 c-1 -512 -4 -931 -5 -932 -2 -2 -130 -6 -285 -10
l-282 -7 0 1721 0 1722 -42 -1 c-24 0 -59 -3 -78 -7 l-35 -7 0 -1180 c0 -1041
-2 -1180 -15 -1183 -13 -2 -15 16 -12 123 2 84 0 125 -8 125 -6 0 -10 30 -9
83 3 118 -13 407 -21 407 -4 0 -11 -37 -15 -82 -4 -46 -11 -86 -16 -89 -6 -3
-11 -40 -12 -82 -2 -77 -2 -77 -29 -77 -26 0 -28 -3 -28 -40 0 -38 2 -40 31
-40 29 0 30 -2 27 -37 -3 -33 -7 -38 -30 -41 l-28 -3 0 -119 0 -119 63 -4 c57
-3 56 -3 -20 -5 l-83 -2 0 1373 c0 754 4 1377 8 1382 19 27 74 64 87 59 8 -4
15 -1 15 5 0 6 5 11 11 11 5 0 7 -4 4 -10 -3 -5 -1 -10 4 -10 6 0 11 5 11 10
0 6 20 10 45 10 l45 0 0 -50 c0 -28 -5 -50 -10 -50 -7 0 -6 -8 1 -22 7 -13 12
-25 11 -28 -1 -3 37 -8 85 -11 49 -3 84 -6 78 -8 -5 -1 5 -8 24 -16 38 -17
157 -20 195 -6 13 6 84 11 157 12 73 0 137 6 143 11 8 7 9 48 4 127 -3 64 -7
137 -7 164 l-1 47 -152 0 c-160 0 -288 9 -286 19 0 3 0 37 -1 74 l-1 68 -52
-2 -53 -3 -3 82 -3 82 196 0 195 0 1 -72z m4529 -8 l0 -80 -85 0 c-61 0 -85
-3 -85 -12 0 -9 -4 -8 -10 2 -5 8 -10 50 -10 93 l0 77 95 0 95 0 0 -80z
m-4652 -262 c-2 -7 2 -12 8 -11 6 1 11 -5 11 -13 0 -11 -4 -11 -19 3 -20 18
-24 33 -8 33 6 0 9 -6 8 -12z m145 5 c-7 -2 -21 -2 -30 0 -10 3 -4 5 12 5 17
0 24 -2 18 -5z m-186 -105 c-2 -18 -4 -4 -4 32 0 36 2 50 4 33 2 -18 2 -48 0
-65z m203 77 c0 -8 -7 -15 -15 -15 -16 0 -20 12 -8 23 11 12 23 8 23 -8z
m-170 -72 c-11 -17 -11 -17 -6 0 3 10 7 28 7 40 2 22 2 22 6 0 2 -12 -1 -30
-7 -40z m98 -20 c-15 -2 -42 -2 -60 0 -18 2 -6 4 27 4 33 0 48 -2 33 -4z m-20
-20 c-16 -2 -40 -2 -55 0 -16 2 -3 4 27 4 30 0 43 -2 28 -4z m4747 -340 c-5
-21 -11 -23 -85 -23 l-80 0 0 48 c0 26 -3 104 -7 174 l-6 127 89 3 89 3 3
-155 c1 -85 0 -165 -3 -177z m325 147 l0 -180 -80 0 -80 0 0 180 0 180 80 0
80 0 0 -180z m-4385 -65 c1 -35 -30 -33 -33 1 -1 14 1 30 4 36 10 15 29 -9 29
-37z m33 -42 c-10 -2 -28 -2 -40 0 -13 2 -5 4 17 4 22 1 32 -1 23 -4z m1379
-1055 c-2 -24 -4 -5 -4 42 0 47 2 66 4 43 2 -24 2 -62 0 -85z m-148 20 c-17
-34 -19 -34 -19 -5 0 18 5 27 15 27 13 0 14 -4 4 -22z m2628 -520 c-2 -13 -4
-3 -4 22 0 25 2 35 4 23 2 -13 2 -33 0 -45z m-250 -140 c-3 -8 -6 -5 -6 6 -1
11 2 17 5 13 3 -3 4 -12 1 -19z m-5329 -135 l-3 -78 -153 -3 -152 -3 2 81 2
80 154 0 153 0 -3 -77z m5169 -305 c-2 -13 -4 -3 -4 22 0 25 2 35 4 23 2 -13
2 -33 0 -45z m901 -90 l-3 -153 -82 -3 -83 -3 0 156 0 155 85 0 86 0 -3 -152z
m-741 -245 c-2 -38 -3 -7 -3 67 0 74 1 105 3 68 2 -38 2 -98 0 -135z m-4880
115 c-2 -13 -4 -3 -4 22 0 25 2 35 4 23 2 -13 2 -33 0 -45z m-77 -58 c0 -22
-4 -40 -10 -40 -5 0 -10 18 -10 40 0 22 5 40 10 40 6 0 10 -18 10 -40z m97
-22 c-2 -13 -4 -3 -4 22 0 25 2 35 4 23 2 -13 2 -33 0 -45z m233 -1236 c0 -33
-5 -64 -12 -71 -11 -11 -10 -12 1 -6 9 5 12 3 10 -4 -12 -36 -24 -7 -27 62 -2
64 0 77 13 77 12 0 15 -12 15 -58z m5478 51 c-10 -2 -26 -2 -35 0 -10 3 -2 5
17 5 19 0 27 -2 18 -5z m-4949 -65 c-1 -48 -2 -50 -10 -23 -9 28 -5 75 6 75 3
0 5 -24 4 -52z m1508 -30 c-2 -13 -4 -3 -4 22 0 25 2 35 4 23 2 -13 2 -33 0
-45z m-1677 -318 l0 -90 -69 0 -69 0 1 -82 2 -83 -247 -3 -248 -2 0 90 0 90
230 0 230 0 0 85 0 85 85 0 85 0 0 -90z m4498 84 c22 -6 22 -9 22 -164 l0
-158 -84 -7 c-46 -4 -89 -4 -95 -1 -7 5 -11 64 -11 172 l0 164 73 0 c39 0 82
-3 95 -6z m433 -324 l79 0 -1 -112 c0 -62 -3 -107 -6 -100 -3 8 -30 12 -84 12
l-79 0 1 118 c1 64 3 109 6 100 4 -15 17 -18 84 -18z m-5253 -37 c-10 -2 -26
-2 -35 0 -10 3 -2 5 17 5 19 0 27 -2 18 -5z m-10 -30 c-21 -2 -57 -2 -80 0
-24 2 -7 4 37 4 44 0 63 -2 43 -4z m17 -101 c17 -5 16 -7 -10 -13 -24 -6 -20
-7 20 -7 28 0 105 -3 173 -7 l122 -8 0 -89 c0 -77 -2 -88 -17 -88 -52 -2 -357
1 -359 3 -1 1 -3 45 -5 97 -3 71 0 94 9 93 6 -2 12 6 12 18 0 16 4 19 18 14 9
-4 26 -10 37 -13z m-115 -2 c0 -5 -2 -10 -4 -10 -3 0 -8 5 -11 10 -3 6 -1 10
4 10 6 0 11 -4 11 -10z m-130 -120 l0 -90 -172 2 -173 3 -3 88 -3 87 176 0
175 0 0 -90z m5050 80 c-46 -4 -60 -7 -35 -8 30 -2 36 -5 25 -12 -13 -8 -13
-10 2 -10 12 0 15 -5 11 -17 -5 -13 -2 -15 11 -10 10 4 41 8 69 8 29 1 44 3
35 6 -10 2 -18 9 -18 14 0 5 -10 9 -22 9 -12 0 -19 2 -16 5 9 10 98 -8 91 -18
-4 -6 2 -8 14 -5 20 5 21 2 18 -51 -1 -31 -3 -59 -4 -63 0 -5 -73 -8 -161 -8
l-160 0 0 65 c0 44 4 65 12 65 9 0 9 3 0 12 -24 24 -10 28 96 26 l107 -2 -75
-6z m133 3 c-7 -2 -19 -2 -25 0 -7 3 -2 5 12 5 14 0 19 -2 13 -5z m354 -34
c-4 -14 0 -19 14 -19 16 0 19 -7 19 -40 0 -22 -4 -40 -10 -40 -5 0 -7 -7 -3
-16 5 -13 -4 -15 -61 -13 -49 2 -66 6 -66 16 0 8 3 12 8 9 9 -5 6 69 -3 84 -4
6 2 7 18 1 19 -7 28 -5 40 10 9 10 13 19 9 19 -4 0 0 4 8 9 19 13 33 3 27 -20z
m-67 -1 c0 -4 -4 -8 -9 -8 -6 0 -12 4 -15 8 -3 5 1 9 9 9 8 0 15 -4 15 -9z
m-59 -66 c1 -28 0 -55 -4 -59 -4 -3 -7 22 -7 57 0 75 8 77 11 2z m-4901 -152
c0 -26 -5 -40 -13 -40 -9 0 -13 14 -12 40 0 25 5 40 13 40 7 0 12 -15 12 -40z
m173 -34 c16 -13 16 -14 -5 -20 -31 -8 -133 -8 -125 1 4 4 32 5 62 4 52 -2 76
12 38 22 -13 3 -14 5 -3 6 8 0 23 -6 33 -13z m-176 -22 c-3 -3 -12 -4 -19 -1
-8 3 -5 6 6 6 11 1 17 -2 13 -5z m3846 -62 c-155 -2 -163 -3 -163 -23 0 -19 5
-19 120 -16 l120 5 0 -24 c0 -25 15 -33 23 -11 4 9 8 8 16 -3 8 -11 13 -12 19
-4 5 9 11 8 20 -2 11 -12 8 -14 -15 -15 -15 -1 -102 -5 -193 -9 l-165 -6 148
-2 c97 -1 147 -6 147 -13 0 -6 20 -9 52 -8 32 2 53 -1 55 -8 3 -9 -82 -12
-326 -13 l-330 0 5 57 c3 32 6 67 7 78 1 11 5 22 9 25 3 3 143 3 310 0 223 -3
260 -6 141 -8z m-3786 -74 c-3 -7 -5 -2 -5 12 0 14 2 19 5 13 2 -7 2 -19 0
-25z m3266 -25 c-7 -2 -21 -2 -30 0 -10 3 -4 5 12 5 17 0 24 -2 18 -5z"/>
<path d="M2643 7292 c-8 -14 -8 -19 1 -19 7 0 13 9 13 19 1 10 1 18 0 18 -1 0
-7 -8 -14 -18z"/>
<path d="M3520 7230 c0 -5 5 -10 11 -10 5 0 7 5 4 10 -3 6 -8 10 -11 10 -2 0
-4 -4 -4 -10z"/>
<path d="M3518 7163 c7 -3 16 -2 19 1 4 3 -2 6 -13 5 -11 0 -14 -3 -6 -6z"/>
<path d="M4328 7163 c6 -2 18 -2 25 0 6 3 1 5 -13 5 -14 0 -19 -2 -12 -5z"/>
<path d="M4378 7163 c7 -3 16 -2 19 1 4 3 -2 6 -13 5 -11 0 -14 -3 -6 -6z"/>
<path d="M5370 7076 l0 -83 61 -7 c112 -11 106 -14 111 58 3 35 3 76 1 90 -5
26 -7 26 -89 26 l-84 0 0 -84z"/>
<path d="M5106 7091 c-3 -5 0 -11 8 -14 15 -6 26 1 26 15 0 11 -27 10 -34 -1z"/>
<path d="M3233 7055 c0 -10 11 -15 36 -15 39 0 32 17 -11 25 -17 3 -25 0 -25
-10z"/>
<path d="M5882 7042 c-17 -21 -22 -40 -22 -89 l0 -63 620 0 c406 0 620 3 621
10 2 43 1 122 -3 125 -2 3 -273 5 -601 5 -527 1 -638 5 -585 22 8 3 8 7 2 11
-6 3 -21 -6 -32 -21z"/>
<path d="M7068 7063 c7 -3 16 -2 19 1 4 3 -2 6 -13 5 -11 0 -14 -3 -6 -6z"/>
<path d="M3143 7030 c-111 -3 -205 -8 -209 -12 -4 -5 -2 -8 4 -8 8 0 12 -21
12 -59 l0 -59 195 -7 c108 -4 198 -5 201 -2 3 2 4 38 2 78 l-3 74 -202 -5z"/>
<path d="M4776 7030 l-250 -5 3 -65 c1 -36 3 -66 4 -67 1 -1 113 -3 250 -5
l247 -3 0 78 c0 42 -1 76 -2 75 -2 -1 -115 -5 -252 -8z"/>
<path d="M7133 7021 c0 -11 5 -17 9 -15 11 7 10 34 -1 34 -6 0 -9 -9 -8 -19z"/>
<path d="M5095 7011 c-3 -5 2 -11 10 -15 8 -3 17 -1 20 3 3 5 -2 11 -10 15 -8
3 -17 1 -20 -3z"/>
<path d="M5046 6997 c3 -10 9 -15 12 -12 3 3 0 11 -7 18 -10 9 -11 8 -5 -6z"/>
<path d="M4213 6960 c0 -25 2 -35 4 -22 2 12 2 32 0 45 -2 12 -4 2 -4 -23z"/>
<path d="M4331 6954 c0 -11 3 -14 6 -6 3 7 2 16 -1 19 -3 4 -6 -2 -5 -13z"/>
<path d="M5048 6935 c-3 -14 -1 -25 3 -25 5 0 9 11 9 25 0 14 -2 25 -4 25 -2
0 -6 -11 -8 -25z"/>
<path d="M4478 6913 c7 -3 16 -2 19 1 4 3 -2 6 -13 5 -11 0 -14 -3 -6 -6z"/>
<path d="M4370 6899 c0 -5 5 -7 10 -4 6 3 10 8 10 11 0 2 -4 4 -10 4 -5 0 -10
-5 -10 -11z"/>
<path d="M2778 6893 c7 -3 16 -2 19 1 4 3 -2 6 -13 5 -11 0 -14 -3 -6 -6z"/>
<path d="M3433 6882 l-73 -3 0 -185 0 -185 78 3 77 3 3 179 c1 99 -1 182 -5
185 -5 3 -41 5 -80 3z"/>
<path d="M4381 6882 c-5 -2 -7 -10 -4 -18 3 -8 0 -14 -6 -14 -6 0 -11 5 -11
11 0 5 -4 7 -10 4 -17 -10 -11 -25 10 -25 20 0 20 -6 18 -642 -2 -388 -5 -562
-8 -438 -5 166 -6 181 -8 82 -1 -88 -5 -121 -13 -116 -8 4 -9 27 -5 68 4 41 3
56 -3 46 -14 -20 -31 27 -31 86 0 35 -5 50 -25 68 -14 13 -25 28 -25 35 0 6
-12 11 -26 11 -26 0 -54 20 -54 39 0 6 -18 11 -40 11 -29 0 -40 4 -40 15 0 11
11 15 40 15 22 0 40 5 40 10 0 6 -18 10 -40 10 -22 0 -40 5 -40 10 0 6 -19 10
-41 10 l-42 0 7 -37 c3 -21 6 -46 6 -55 0 -9 9 -19 19 -23 13 -4 17 -12 14
-25 -5 -17 -14 -20 -64 -20 -32 0 -61 -5 -64 -11 -5 -7 12 -9 53 -7 34 1 64
-1 69 -6 4 -4 -1 -7 -12 -6 -11 1 -55 2 -97 1 l-78 -1 0 -166 0 -165 85 3 86
3 -2 -61 c-1 -34 1 -66 5 -72 3 -6 2 -13 -4 -17 -5 -3 -10 -33 -10 -66 l0 -59
85 0 85 0 0 -105 0 -105 95 0 95 0 0 -240 0 -240 75 0 75 0 0 288 c0 158 -3
655 -7 1105 l-6 818 -68 -3 c-38 -2 -73 -4 -78 -6z m-201 -851 c0 -14 -38 -24
-66 -17 -14 4 -22 11 -19 16 8 13 85 13 85 1z m-143 -253 c-2 -35 -3 -7 -3 62
0 69 1 97 3 63 2 -35 2 -91 0 -125z m223 157 c0 -14 -4 -25 -10 -25 -5 0 -10
4 -10 9 0 5 -3 16 -6 25 -4 11 -1 16 10 16 10 0 16 -9 16 -25z m117 -517 c-2
-13 -4 -3 -4 22 0 25 2 35 4 23 2 -13 2 -33 0 -45z m-2 -78 c3 -5 1 -10 -4
-10 -6 0 -11 5 -11 10 0 6 2 10 4 10 3 0 8 -4 11 -10z"/>
<path d="M7107 6884 c-4 -4 -7 -45 -7 -91 l0 -83 84 0 c47 0 87 4 90 8 2 4 6
44 7 87 l2 80 -84 3 c-47 1 -88 0 -92 -4z"/>
<path d="M5260 6850 c0 -5 5 -10 10 -10 6 0 10 5 10 10 0 6 -4 10 -10 10 -5 0
-10 -4 -10 -10z"/>
<path d="M5202 6800 c0 -19 2 -27 5 -17 2 9 2 25 0 35 -3 9 -5 1 -5 -18z"/>
<path d="M5598 6753 c7 -3 16 -2 19 1 4 3 -2 6 -13 5 -11 0 -14 -3 -6 -6z"/>
<path d="M7295 6712 c-6 -4 -9 -45 -7 -104 l4 -98 79 0 79 0 0 105 0 105 -72
0 c-40 0 -78 -4 -83 -8z"/>
<path d="M7487 6703 c-13 -12 -7 -23 13 -23 13 0 18 5 14 15 -7 16 -17 19 -27
8z"/>
<path d="M5370 6644 c0 -21 4 -45 9 -53 5 -8 7 5 4 35 -7 61 -13 70 -13 18z"/>
<path d="M3545 6513 c-19 -4 -20 -11 -19 -151 0 -81 2 -162 2 -179 l2 -33 75
0 75 0 0 185 0 185 -57 -1 c-32 -1 -67 -4 -78 -6z"/>
<path d="M5284 6504 c3 -9 9 -26 12 -38 3 -12 14 -27 24 -34 17 -10 19 -8 17
23 -1 21 -7 35 -15 35 -7 0 -15 7 -18 15 -4 8 -11 15 -16 15 -6 0 -7 -7 -4
-16z"/>
<path d="M5268 6400 c-3 -33 0 -40 14 -40 14 0 18 8 18 40 0 28 -4 40 -14 40
-9 0 -15 -14 -18 -40z"/>
<path d="M5360 6383 c0 -29 12 -24 17 7 2 11 -2 20 -7 20 -6 0 -10 -12 -10
-27z"/>
<path d="M3694 6356 c-3 -8 -4 -29 -1 -48 3 -30 4 -30 5 9 2 30 7 43 20 46 16
4 16 5 -1 6 -10 0 -20 -5 -23 -13z"/>
<path d="M3725 6190 c3 -5 1 -10 -5 -10 -6 0 -8 -4 -5 -10 3 -5 21 -10 38 -10
28 1 30 2 13 11 -15 9 -16 13 -5 20 10 6 6 9 -14 9 -16 0 -26 -4 -22 -10z"/>
<path d="M3810 6164 c0 -5 -26 -11 -57 -12 -32 -2 -60 -6 -63 -10 -3 -4 -4
-46 -2 -94 l3 -88 81 0 c71 0 80 2 85 20 6 21 28 27 38 9 5 -7 12 -6 23 4 10
8 41 17 70 19 53 5 71 13 59 24 -4 4 -13 1 -22 -6 -11 -9 -36 -11 -85 -7 -43
4 -68 2 -65 -4 4 -5 1 -9 -4 -9 -7 0 -11 27 -11 68 0 37 -5 74 -10 82 -8 12
-10 12 -10 1 0 -11 -3 -11 -15 -1 -8 7 -15 8 -15 4z m100 -154 c0 -5 -2 -10
-4 -10 -3 0 -8 5 -11 10 -3 6 -1 10 4 10 6 0 11 -4 11 -10z"/>
<path d="M3887 6146 c-7 -18 1 -26 25 -26 27 0 48 -24 48 -54 0 -14 5 -26 10
-26 20 0 11 70 -13 93 -26 26 -63 32 -70 13z"/>
<path d="M7702 6140 c0 -14 2 -19 5 -12 2 6 2 18 0 25 -3 6 -5 1 -5 -13z"/>
<path d="M2663 5600 c0 -25 2 -35 4 -22 2 12 2 32 0 45 -2 12 -4 2 -4 -23z"/>
<path d="M2703 5520 c0 -25 2 -35 4 -22 2 12 2 32 0 45 -2 12 -4 2 -4 -23z"/>
<path d="M2733 5360 c0 -25 2 -35 4 -22 2 12 2 32 0 45 -2 12 -4 2 -4 -23z"/>
<path d="M2753 5280 c0 -25 2 -35 4 -22 2 12 2 32 0 45 -2 12 -4 2 -4 -23z"/>
<path d="M2613 5125 c0 -22 2 -30 4 -17 2 12 2 30 0 40 -3 9 -5 -1 -4 -23z"/>
<path d="M2752 5050 c0 -19 3 -57 8 -85 6 -40 7 -43 8 -15 0 19 -3 58 -8 85
-6 40 -7 43 -8 15z"/>
<path d="M2609 4798 c0 -112 -1 -220 -2 -241 -1 -20 1 -37 6 -37 4 0 7 108 7
240 0 132 -2 240 -5 240 -3 0 -5 -91 -6 -202z"/>
<path d="M2783 4880 c0 -25 2 -35 4 -22 2 12 2 32 0 45 -2 12 -4 2 -4 -23z"/>
<path d="M3860 4820 c0 -6 33 -10 78 -11 52 0 71 -3 57 -9 -16 -7 -17 -9 -3
-9 9 -1 19 -9 21 -18 3 -10 5 -1 6 20 l1 37 -80 0 c-47 0 -80 -4 -80 -10z"/>
<path d="M3860 4769 c0 -5 5 -7 10 -4 6 3 10 8 10 11 0 2 -4 4 -10 4 -5 0 -10
-5 -10 -11z"/>
<path d="M3980 4770 c0 -5 5 -10 10 -10 6 0 10 5 10 10 0 6 -4 10 -10 10 -5 0
-10 -4 -10 -10z"/>
<path d="M2783 4715 c0 -22 2 -30 4 -17 2 12 2 30 0 40 -3 9 -5 -1 -4 -23z"/>
<path d="M7738 2563 c6 -2 10 -9 6 -14 -3 -5 2 -9 12 -9 13 0 14 3 4 15 -7 8
-18 15 -24 14 -7 0 -6 -2 2 -6z"/>
<path d="M7788 2543 c7 -3 16 -2 19 1 4 3 -2 6 -13 5 -11 0 -14 -3 -6 -6z"/>
<path d="M7717 2466 c-9 -22 -1 -36 21 -36 13 0 14 2 4 9 -8 4 -13 11 -12 15
4 18 -7 28 -13 12z"/>
<path d="M8260 2430 c0 -5 12 -10 28 -9 24 0 25 1 7 9 -27 12 -35 12 -35 0z"/>
<path d="M7018 2113 c23 -2 61 -2 85 0 23 2 4 4 -43 4 -47 0 -66 -2 -42 -4z"/>
<path d="M6838 2093 c12 -2 32 -2 45 0 12 2 2 4 -23 4 -25 0 -35 -2 -22 -4z"/>
<path d="M7680 8556 l0 -84 85 -7 c46 -4 88 -5 92 -2 4 3 7 44 5 91 l-3 86
-90 0 -89 0 0 -84z"/>
<path d="M2404 8295 c22 -17 36 -19 36 -6 0 10 -24 21 -43 21 -7 0 -3 -7 7
-15z"/>
<path d="M2303 8255 c0 -22 2 -30 4 -17 2 12 2 30 0 40 -3 9 -5 -1 -4 -23z"/>
<path d="M2300 8160 c0 -22 3 -40 8 -40 4 0 6 18 4 40 -2 22 -6 40 -8 40 -2 0
-4 -18 -4 -40z"/>
<path d="M2425 8160 c3 -5 8 -10 11 -10 2 0 4 5 4 10 0 6 -5 10 -11 10 -5 0
-7 -4 -4 -10z"/>
<path d="M8192 8078 l3 -83 80 0 c44 0 81 3 83 8 1 4 2 41 2 82 l0 75 -85 0
-86 0 3 -82z"/>
<path d="M2425 8130 c3 -5 -1 -10 -9 -10 -22 0 -22 -75 0 -84 8 -3 12 -10 9
-16 -3 -5 -1 -10 4 -10 7 0 11 26 11 65 0 39 -4 65 -11 65 -5 0 -7 -4 -4 -10z"/>
<path d="M1980 7575 l0 -95 53 0 c97 0 97 1 97 95 0 94 0 95 -97 95 l-53 0 0
-95z"/>
<path d="M1660 5785 l0 -155 80 0 80 0 0 80 0 80 80 0 80 0 0 75 0 75 -160 0
-160 0 0 -155z"/>
<path d="M8367 3403 c18 -2 50 -2 70 0 21 2 7 4 -32 4 -38 0 -55 -2 -38 -4z"/>
<path d="M1951 3284 c0 -11 3 -14 6 -6 3 7 2 16 -1 19 -3 4 -6 -2 -5 -13z"/>
<path d="M1832 3215 c0 -16 2 -22 5 -12 2 9 2 23 0 30 -3 6 -5 -1 -5 -18z"/>
<path d="M1831 3144 c0 -11 3 -14 6 -6 3 7 2 16 -1 19 -3 4 -6 -2 -5 -13z"/>
<path d="M1980 2492 c0 -64 -4 -112 -11 -119 -8 -8 -8 -13 0 -17 6 -4 11 -2
11 4 0 8 6 8 20 0 18 -10 24 -7 21 13 0 4 19 7 44 7 25 0 45 5 45 10 0 6 8 10
18 8 15 -3 17 7 17 97 l0 100 -82 3 -83 3 0 -109z"/>
<path d="M1862 2395 c9 -9 108 -13 108 -4 0 5 -25 9 -57 9 -31 0 -54 -2 -51
-5z"/>
<path d="M2170 2390 c8 -5 26 -10 39 -10 32 0 24 6 -19 14 -25 4 -31 3 -20 -4z"/>
<path d="M2120 2373 c0 -5 24 -9 53 -9 42 -1 46 0 22 6 -41 10 -75 12 -75 3z"/>
<path d="M1913 2363 c9 -2 23 -2 30 0 6 3 -1 5 -18 5 -16 0 -22 -2 -12 -5z"/>
<path d="M1928 2263 c7 -3 16 -2 19 1 4 3 -2 6 -13 5 -11 0 -14 -3 -6 -6z"/>
<path d="M1928 2223 c39 -2 105 -2 145 0 39 1 7 3 -73 3 -80 0 -112 -2 -72 -3z"/>
<path d="M5488 2193 c12 -2 30 -2 40 0 9 3 -1 5 -23 4 -22 0 -30 -2 -17 -4z"/>
<path d="M4700 2100 c-41 -6 -42 -7 -10 -8 19 0 55 3 80 7 40 8 41 8 10 8 -19
0 -55 -3 -80 -7z"/>
<path d="M4828 2093 c6 -2 18 -2 25 0 6 3 1 5 -13 5 -14 0 -19 -2 -12 -5z"/>
<path d="M5068 2093 c7 -3 16 -2 19 1 4 3 -2 6 -13 5 -11 0 -14 -3 -6 -6z"/>
<path d="M6358 2073 c12 -2 30 -2 40 0 9 3 -1 5 -23 4 -22 0 -30 -2 -17 -4z"/>
<path d="M6558 2073 c12 -2 30 -2 40 0 9 3 -1 5 -23 4 -22 0 -30 -2 -17 -4z"/>
<path d="M8102 2043 c37 -2 100 -2 140 0 40 1 10 3 -67 3 -77 0 -110 -1 -73
-3z"/>
<path d="M7610 2010 c-23 -7 -23 -8 -3 -9 12 -1 25 4 28 9 3 6 5 10 3 9 -2 -1
-14 -5 -28 -9z"/>
<path d="M8373 1920 c0 -25 2 -35 4 -22 2 12 2 32 0 45 -2 12 -4 2 -4 -23z"/>
</g>
</svg>
